<svg xmlns="http://www.w3.org/2000/svg"><symbol id="brachiosaurus" viewBox="0 0 256 256"><path d="M58.4 167.4a33.3 33.3 0 0 0-7.8.9c0 .3.3.6.8 1a12 12 0 0 0 2 1.1l2.7.9 2.8.9 2.4.6 1.5.2H65a10.9 10.9 0 0 0 2.5-.4 8.5 8.5 0 0 0 2.4-.9 4.7 4.7 0 0 0 1.7-1.4 30.7 30.7 0 0 0-6.4-2.3 31.4 31.4 0 0 0-6.8-.6z"/><path d="M128-.3A128.3 128.3 0 1 0 256.3 128 128.2 128.2 0 0 0 128-.3zm83.7 70.8v.3a8.8 8.8 0 0 1-.1 1.4l-.3 2.1c-.2.8-.3 1.5-.4 2.1s-.2 1.1-.2 1.4a7.6 7.6 0 0 0-.9 1.8 15.9 15.9 0 0 0-.7 2l-.6 2a11.8 11.8 0 0 1-.7 2 30.7 30.7 0 0 1-1.7 3.1 22.5 22.5 0 0 0-1.6 3.1l-20.2 28a.8.8 0 0 1-.2.5l-.3.3c0 .1-.2.2-.3.3l-.4.5-1.7 2.3-2 2.9c-.8 1-1.5 2.1-2.3 3.2s-1.4 2.3-1.9 3.3l-1.5 3a8.6 8.6 0 0 0-.5 2.4c0 .3-.2.5-.2.7s.2.4.2.7c-.2.1-.3.2-.3.4s.1.4.3.4V151a4.4 4.4 0 0 1-.2 1 4.2 4.2 0 0 0-.4 1.2 6.7 6.7 0 0 0-.6 1.2c-.1.4-.5.8-.5 1.1v1.7c0 .1.2.2 0 .4s-.2.5-.4.8l-.7.8c-.2.3-.6.4-.6.5v.4s.8.2.9.4.8.3.8.4v2.9a21.4 21.4 0 0 1-.6 3.5c-.2 1.2-.6 2.4-.8 3.5s-.5 2.4-.6 3.6a22.1 22.1 0 0 0-.4 3.5c0 2.2.1 4.3.3 6.4a42.3 42.3 0 0 0 1.1 6.2 28.9 28.9 0 0 0 2.2 5.8 22.8 22.8 0 0 0 3.4 5.3 3.2 3.2 0 0 1-1.3.8l-1.7.7-1.7.5h-1.9l-1.1-.3-1.2-.2-.9-.3h-.8l-.8-.3-.6-.5a1.5 1.5 0 0 1-.3-.7 27.7 27.7 0 0 0 .1-4.1 31.1 31.1 0 0 0-.3-4.3c-.1-1.4-.3-2.9-.5-4.3s-.4-2.8-.5-4.1a6.4 6.4 0 0 1-.2-.7l-.3-.6c.1-1.1.1-2.3.1-3.7a26.7 26.7 0 0 0-.1-4 29 29 0 0 0-.6-4.1 12.8 12.8 0 0 0-1.4-3.4 3.8 3.8 0 0 0-1.5 1.8 22.9 22.9 0 0 0-.8 2.8c-.2.9-.2 1.9-.4 2.9s-.9 1.7-.9 2.3v3.9a17.7 17.7 0 0 0 0 2.3v1.5c0 2.8-.3 5.6-.1 8.3s.2 5.5.5 8.3l.4.4.9.6.8.7a.9.9 0 0 1 .3.6c0 .2-.3.5-.8.8l-1.9.9-2 .8-1.3.4h-.2l-4.8-2.6c-.3-.1-.2-.4-.2-.5v-.6a29.9 29.9 0 0 1 0-3 28.1 28.1 0 0 0 .1-3 25.6 25.6 0 0 0-.3-3.9l-.6-3.7-.6-3.8c-.1-1.3-.2-2.6-.2-3.9s0-2.4.1-3.4l.3-2.8.6-2.8q.3-1.5.6-3.3a.8.8 0 0 0 0-.7 2 2 0 0 1-.1-.7l-1.9.2-1.9.5-1.9.6-2 .6-1.3.2h-2.1l-1.1-.2h-7.1a46.1 46.1 0 0 0-5.3-.2h-2.5a3.8 3.8 0 0 0-2.4.9 45.1 45.1 0 0 1 0 5.2c0 1.7-.1 3.5-.1 5.2l-.3 5.1c0 1.8-.1 3.5-.1 5.3v1a7.5 7.5 0 0 0 0 1.5v2.6c0 .6.6 1.1 1.1 1.7a20.9 20.9 0 0 1 1.4 1.7 9.4 9.4 0 0 1 1.2 1.8 3.1 3.1 0 0 1 .5 1.8v.4a9.4 9.4 0 0 1-4.1.4c.1.5 0 .7-.2.8h-2.8l-2.2-.2a5.6 5.6 0 0 1-1.9-.9 2.2 2.2 0 0 1-.7-1.9 6.2 6.2 0 0 1 .1-1.3l.3-1.3.3-1.3a6.8 6.8 0 0 0 .2-1.4 25.6 25.6 0 0 0-.3-3.9c-.2-1.2-.4-2.4-.7-3.6s-.5-2.7-.8-3.9a19.3 19.3 0 0 1-.7-4h-.5c-.2 0-.4.8-.5 1l-.4.6-.3.6-1.6 2.3-1.5 2.3a24.4 24.4 0 0 0-1 2.4 8.6 8.6 0 0 0-.5 2.7 3.5 3.5 0 0 0 .4 1.7 10.1 10.1 0 0 0 .7 1.5l.7 1.2c.3.3.4.5.4.6s-.2.5-.5.7a2.3 2.3 0 0 1-1 .5l-1.3.2h-4.4a2.1 2.1 0 0 1-1.1-.4 2.2 2.2 0 0 1-.7-.9 10.3 10.3 0 0 1-.5-1.6 14.2 14.2 0 0 1-.5-1.6 5.1 5.1 0 0 1-.3-1.7 2.8 2.8 0 0 1 .4-1.5l.9-1.6 1.1-1.6a5.5 5.5 0 0 0 .8-1.5c.9-1.9 1.7-3.9 2.5-5.9l2.5-6 .5-.7.5-.8a1.6 1.6 0 0 0 .4-.7 1.2 1.2 0 0 0 .2-.8c0-.4-.1-.6-.3-.7h-1.3l-9.1 2.5a3.2 3.2 0 0 1-1.3.5l-1.8.4-1.6.6a1.2 1.2 0 0 0-.7 1.1 1.6 1.6 0 0 0 .3.9l.6.6.9.6.7.6-.4.5-1.3-.9-1.4-.8-1.5-.7-1.5-.2a17.4 17.4 0 0 0-3.9.5l-4 1.2-4.1 1.1a15.1 15.1 0 0 1-4.2.5 17.7 17.7 0 0 1-3.5-.4 38.2 38.2 0 0 1-5-1.1l-5.5-1.8a32.8 32.8 0 0 1-5-2.2 19.7 19.7 0 0 1-3.7-2.7 4.3 4.3 0 0 1-1.5-3 4.2 4.2 0 0 1 1.2-3.3 5.3 5.3 0 0 1 2.8-1.7 13.3 13.3 0 0 1 3.5-.1 31.1 31.1 0 0 1 3.3.3h4.1a2.4 2.4 0 0 1 1.3-.3 21.5 21.5 0 0 1 2.3.2l2.6.3 2 .3a5.9 5.9 0 0 1 1.9.5l1.9.9a9.6 9.6 0 0 0 1.8.7 4.5 4.5 0 0 0 2 .4 8.9 8.9 0 0 0 4-1.1 31.9 31.9 0 0 0 4.2-2.6 40.8 40.8 0 0 0 3.9-3.1l3.3-2.8 1.9-1.2 1.9-1.1a10.9 10.9 0 0 0 1.7-1.3 6.1 6.1 0 0 0 1.5-1.7 42.5 42.5 0 0 0 2.7-4.6q1.2-2.2 2.7-4.5l1.3-1.3 1.6-1 1.6-.9a14 14 0 0 0 1.7-.9l3.6-2.6 3.5-3 3.4-3 3.5-2.9a15.7 15.7 0 0 1 3.8-2.2l3.9-1.9 2.6-1.3 2.4-1.3 2.6-1.2a13.4 13.4 0 0 1 2.7-.7l22.7-3.3a13.2 13.2 0 0 0 3.5-1.2 17.9 17.9 0 0 0 3.4-2.2 28.9 28.9 0 0 0 3.2-2.9l2.9-3.3 2.7-3.2 2.4-2.9 7.8-9 .3-.3.5-.6.6-.5.2-.3 2.1-3.3h.3l.3-.3a.5.5 0 0 0 .4-.2l.2-.2.5-.4c.2-.2.3-.3.3-.4l1.3-1.7 1.4-2 1.3-2 1-1.7a18 18 0 0 0 .8-2.1 17.2 17.2 0 0 0 .7-2.1c.3-.7.5-1.5.8-2.2s1-1.5 1-2.2v-6.2a5.3 5.3 0 0 0-1.1-3.1 13.3 13.3 0 0 0-2.6-2.7 15.9 15.9 0 0 0-3.4-1.8 10.9 10.9 0 0 0-3.3-.7 27.1 27.1 0 0 0-5.8.7 11.3 11.3 0 0 0-5.2 2.7 6.4 6.4 0 0 0-1.5 1.4l-1.6 1.9-1.8 2-1.8 1.9a10.7 10.7 0 0 1-1.9 1.3 3.1 3.1 0 0 1-1.8.5 1.3 1.3 0 0 1-1.1-.5 1.5 1.5 0 0 1-.6-1.1v-.4l.2-.5c0-.3.1-.5.1-.8s.1-.5.2-.8V63a4.4 4.4 0 0 0-.2-1.7l-.6-1.4-.6-1.2a2.8 2.8 0 0 1-.3-1.3l.9-.2a1.6 1.6 0 0 0 .4-.7l.5-.7a1.2 1.2 0 0 1 .8-.6c0-.1.2-.1.5-.1h2.4a1 1 0 0 0 .9-.4l.7-.6c.1-.1.2 0 .3 0h.1l.3.4a1 1 0 0 0 .1.4.8.8 0 0 1 .4-.4l.7-.3 1.1-.7 1.4-.8 1.3-.8 1.1-.7a1.5 1.5 0 0 0 .6-.4 12 12 0 0 1 2.1-1.2l1.8-.7 2-.2h6.5l1.5.5 1.5.3 1.6.3 1.5.5a13.8 13.8 0 0 1 4.6 3.1 19.1 19.1 0 0 1 3.3 4.2 21.8 21.8 0 0 1 1.7 5.1 25.6 25.6 0 0 1 .5 5.5v2.4z"/></symbol><symbol id="micropachycephalosaurus" viewBox="0 0 256 256"><path d="M132.6 151.2c-.3 0-.5.2-.5.6-.4 0-.5.2-.5.5s.1.6.5.6.4-.2.4-.6h.1c.3 0 .5-.1.5-.5s-.2-.6-.5-.6zm1.4-.8a3 3 0 0 0-.8.8h.3l1.1-.3.8-.8h-.3zm3.1-2.5c-.3 0-.4.1-.4.5h-.2c-.2 0-.4.2-.4.6h-.1c-.3 0-.5.2-.5.6a.5.5 0 1 0 1 0c.4 0 .5-.2.5-.6h.1c.3 0 .5-.2.5-.6s-.2-.5-.5-.5zm23.3-6a8.9 8.9 0 0 1-1.3 1.4c.3.6.5 1 .8 1.1l1.2.2a2.4 2.4 0 0 0 1.4-.5 6.3 6.3 0 0 0 1.1-1.2 10.1 10.1 0 0 0 .7-1.5c.2-.5.4-1.2.5-1.2h-3.4c-.2 0-.5 1.1-1 1.7z"/><path d="M128 .3A127.7 127.7 0 1 0 255.7 128 127.7 127.7 0 0 0 128 .3zm95.7 75.8l-1.5.4h-3.8a43.7 43.7 0 0 0-5.2 1.3 15 15 0 0 0-3.6 1.6 8.7 8.7 0 0 0-2.5 2.1 14.9 14.9 0 0 0-1.8 3 40.4 40.4 0 0 0-1.5 3.9c-.5 1.5-1.1 3.2-1.7 5.1l-1.2 3.5-1.2 3.2-1.5 3.2a35.8 35.8 0 0 1-1.8 3.2 32.1 32.1 0 0 1-2.6 4.1l-3 3.7-3.1 3.6c-1.1 1.2-2.1 2.5-3.1 3.8a8.7 8.7 0 0 0-1.4 2.7 20 20 0 0 1-1 2.6 9.8 9.8 0 0 1-1.3 2.2 5.7 5.7 0 0 1-2.5 1.6l-1.4.6-2 .6-2.1.7-1.3.4a2.8 2.8 0 0 1 .1 2 1.8 1.8 0 0 1-.8.9l-1.2.6a1.3 1.3 0 0 0-.9 1l-2.3 6.7a2.6 2.6 0 0 1-1.1 1.6l-1.7.8a14.9 14.9 0 0 1-2.1.2 9.7 9.7 0 0 1-1.8-.1h-2c-.3-.1-.4-.3-.4-.8s0-.3.1-.4l.2-.3.3-.3c0-.1.1-.2.1-.4h-.1v-.2a27 27 0 0 0-3.4 1.7l-3.4 2.1-3.3 2.2-3.4 1.9-.9.5-1.2.6-1 .8a1.8 1.8 0 0 0-.4 1v.3c.1.2.1.2.1.3l1.8 1.6a15.4 15.4 0 0 0 1.9 1.7l2.1 1.6a12 12 0 0 0 2.1 1.2 7.5 7.5 0 0 0 1.8.7l1.9.5 1.9.7a4.6 4.6 0 0 1 1.7.9 9.3 9.3 0 0 1 1.4 1.4l1.1 1.5 1.1 1.5a6.4 6.4 0 0 0 1.5 1.3l1.7.6a8.3 8.3 0 0 1 2.1.6l1.8 1a2.2 2.2 0 0 1 .7 1.7v.3a.4.4 0 0 0-.1.3l-5.6 1.1-1.1.4-1.2.2h-.6l-1.1-.6-1.7-1-1.7-1.1-1.1-.7-.2-.2-.3-.5-.4-.6-.2-.4-2.3-4.6-1.1-.4-1.8-.8-2.2-.9-2.1-1-1.8-.8-1.2-.6a12.8 12.8 0 0 1-2.7-1.6 13.9 13.9 0 0 1-2.7-2.1 13.5 13.5 0 0 1-2-2.7 7.1 7.1 0 0 1-1-3.2l-.6.3-.6.3-.9.7-1.7 1.1-2.1 1.5-2.2 1.3-1.7 1.1-1 .5-6 3.6a19.7 19.7 0 0 0-4.5 3.4 18.2 18.2 0 0 0-3.7 4.5c-.9 1.7-.7 3.9-2.4 6.6v1.6a10.5 10.5 0 0 0 1.2 4.5 7.5 7.5 0 0 0 2.1 2.5 8.9 8.9 0 0 0 2.7 1.5l2.5.9a7.5 7.5 0 0 1 2 1 5.3 5.3 0 0 1 .8 2H102a1 1 0 0 0-.1-.4l-.4-.2h-.5l-.6-.3a3.4 3.4 0 0 1-1.3-1.6 7.2 7.2 0 0 1-.4-2.2 9.3 9.3 0 0 1 .2-2.3c0-.8.2-1.5.2-2.1v-1.4a8.2 8.2 0 0 1 .3-1.8c.2-.8.3-1.7.6-2.7s.5-2 .8-3.2.5-2.1.8-3.1l.6-2.7.5-1.8.6-2a11.8 11.8 0 0 1 1-1.9 14 14 0 0 0 4.5-2.6 25.7 25.7 0 0 0 3.3-3.3l2.9-3.4a15 15 0 0 1 3.5-3.1 3.7 3.7 0 0 1 1.4-.7 10.2 10.2 0 0 1 2.1-.8l2.3-1 2.2-1.1 1.6-1.4a2.2 2.2 0 0 0 .6-1.5v-1.4a2.5 2.5 0 0 0-.7-1.2l-.7-.3-1.2-.5-1.2-.6-.8-.3-2.1-1.2-2.6-1.9a26.3 26.3 0 0 0-2.6-1.6 2.8 2.8 0 0 0-1.7-.5h-7.9c-6 0-11.9-.1-17.8.1s-11.7.2-17.7.2c-4.4 0-8.8-.2-12.9-.4a101.2 101.2 0 0 1-24.6-4.3 75.1 75.1 0 0 1-11.8-5.1l-1.4-.7-1.6-1a8 8 0 0 1-1.3-1.3 2.7 2.7 0 0 1-.6-1.6 6.9 6.9 0 0 1 2.2.4l2.4.9 2.2 1 1.5.6a42.4 42.4 0 0 0 4.7 1.7l5 1.4a33.9 33.9 0 0 0 5.2 1 27.7 27.7 0 0 0 4.9.4h26.6l2.6-.4 3.4-.5 3.6-.6 3.5-.6 2.6-.6 7-1.4c2.4-.4 4.9-1 7.4-1.6s4.9-1.3 7.3-2.1a48.4 48.4 0 0 0 6.6-2.8l3.8-1.8 3.9-1.6 3.9-1.3a29.8 29.8 0 0 1 4.3-.9l1-.2h3.5l1.1-.2 1.9-.3 3.3-.8 4.1-.9 4.1-.9c1.3-.3 2.4-.9 3.3-1.1s1.6-.8 1.9-.8h6.6a69.9 69.9 0 0 1 8 .8c2.6.2 5.2.5 7.8.5a10.2 10.2 0 0 0 5.1-1.3 18.3 18.3 0 0 0 4.5-3.5 28.3 28.3 0 0 0 4-5 63.8 63.8 0 0 0 3.2-5.7 55.3 55.3 0 0 0 2.6-5.6l1.8-4.8c.4-1.2.8-2.4 1.1-3.5s.7-2.2 1-3.1a11.1 11.1 0 0 1 1.2-2.7 11.2 11.2 0 0 1 1.8-2 9.5 9.5 0 0 1 2.6-1.6 13.4 13.4 0 0 1 3.8-.8h3.1c.8 1.7 1.8 1 3 1.4l3.6 1.5a21.6 21.6 0 0 1 3 1.8 2.9 2.9 0 0 1 1.2 2.2 2 2 0 0 1-.4 1.4 2.7 2.7 0 0 1-1.2.5z"/></symbol><symbol id="velociraptor" viewBox="0 0 256 256"><path d="M128-.3A128.3 128.3 0 1 0 256.3 128 128.2 128.2 0 0 0 128-.3zm111 117.1a29.4 29.4 0 0 1-4.2 0h-3.3c-3 0-6.1-.1-9.2-.4l-9.2-1-9.1-1c-3.1-.3-6.2-.4-9.3-.4a131.6 131.6 0 0 0-16.5 1 70.8 70.8 0 0 0-15.9 3.7l-30.8 11.1a3.1 3.1 0 0 0-1.3 1.6 22.9 22.9 0 0 0-.8 2.8l-.6 2.8a8.1 8.1 0 0 1-.6 2 2.9 2.9 0 0 0 1.3 1.4l2.5 1.1 2.9 1.2a15.1 15.1 0 0 1 2.8 1.5 6.5 6.5 0 0 1 2.1 1.9 3.5 3.5 0 0 1 .8 2.4 1.8 1.8 0 0 1-.4 1.3l-1.3.9-1.6.7a8 8 0 0 0-1.6.8 3.2 3.2 0 0 0-1.2 1.1 2 2 0 0 0-.5 1.5 3.3 3.3 0 0 0 .8 2.5 6 6 0 0 0 1.9 1.6l2.4 1.4a7.2 7.2 0 0 1 2.2 1.7 17.5 17.5 0 0 1 2 3.5 16.3 16.3 0 0 1 1.3 3.7c.3 1.3.6 2.5.8 3.9s.1 2.6.2 4l1.4 1.3v7.2h.8l1.1.2 1 .2.5.3a3.2 3.2 0 0 1 .1.8 3.8 3.8 0 0 1-.1 1 5.6 5.6 0 0 1-.4 1.2 1.7 1.7 0 0 1-.6 1 1 1 0 0 1-.9.3h-5.2c-.2 0-.5-.5-1-.8l-1.5-.9-1.6-.8c-.5-.3-.9-.9-1.2-.9h-6.2c0-1.6.2-2.3.7-2.9a3.5 3.5 0 0 1 1.6-1.6 8.1 8.1 0 0 1 2.2-.7l2.1-.3a3.4 3.4 0 0 0 1.6-.6 1.4 1.4 0 0 0 .7-1.4v-.3a.4.4 0 0 0-.1-.3 8.3 8.3 0 0 0-.8-1.8l-1.3-2.5-1.5-2.5a10 10 0 0 0-1.6-1.8l-1.3-.8-1.9-.9-1.8-1.1a2.2 2.2 0 0 1-.9-1.1 17.5 17.5 0 0 1-1-3 17.3 17.3 0 0 0-1.1-3.2 6.9 6.9 0 0 0-1.7-2.6 4 4 0 0 0-2.9-1.1 24.9 24.9 0 0 0-6.1.8 24.2 24.2 0 0 0-5.8 2.3 21.5 21.5 0 0 0-5 3.5 19.5 19.5 0 0 0-4 4.6l-.3.2h-.3a.5.5 0 0 1-.2-.4c-.1-.1-.1-.4-.2-.6a1.4 1.4 0 0 0-.2-.6.4.4 0 0 0-.1-.3h-.3a1.6 1.6 0 0 0-1.1.5l-.9 1.1a6.4 6.4 0 0 1-.8 1.4 4.4 4.4 0 0 1-.8 1 5.6 5.6 0 0 1-.7-1.7c0-.4-.1-1-.1-1.6a15.4 15.4 0 0 1 .4-3l.9-2.8a11.4 11.4 0 0 0 .9-2.6 14.8 14.8 0 0 0 .4-2.8h-4.9c0-1.6.3-1.8.7-2.3a4.9 4.9 0 0 1 1.6-1.6 8.8 8.8 0 0 1 2.2-1l2.1-.3 3.1.2 2.9.5 2.9.5 3 .2h2.3a2.7 2.7 0 0 0-1.7-1.4l-2.6-.4-2.7-.2c-.9-.1-1.6.1-2.2-.2l-3.9-2.2h-.3a17.4 17.4 0 0 0-3.2-.1 11.3 11.3 0 0 1-3.2.2 7.3 7.3 0 0 1-3-.7l-2.7-1.9-2.6-1.3a4.6 4.6 0 0 0-2.9-.7v6.1H85l1-.4.9-.5a3.5 3.5 0 0 1 .9-.6l.6-.2v2.8l2-.7c0 .1.2.3.2.5s.2.4.2.5a5.9 5.9 0 0 1-1.4 4 24.4 24.4 0 0 1-3.3 2.9 21.3 21.3 0 0 0-4.6-1.3l-4.8-.7v-7.8c0 .1-1.1.2-1.8.5l-2.1 1-1.9 1.2c-.5.4-.9.8-.9 1.2v7a10.1 10.1 0 0 0 3-.3l1.8-.6 1.3-.6a2.1 2.1 0 0 1 1.2-.3h.3a1.5 1.5 0 0 1 .3.7c.2.4.3.8.5 1.3a6.5 6.5 0 0 1 .4 1.3 5.1 5.1 0 0 1 .2.9 7.1 7.1 0 0 1-.4 2 17.4 17.4 0 0 1-1.1 1.8 6.5 6.5 0 0 1-1.6 1.3 3.2 3.2 0 0 1-1.8.6H73l-3-.5-3.7-.7a9.3 9.3 0 0 1-3.2-1.3 2.5 2.5 0 0 1-1.5-2.1v-11.9l.9-.8 1.9-1.7 2.4-2.1a28.4 28.4 0 0 0 2.4-2.6 21.1 21.1 0 0 0 1.8-2.7 5.6 5.6 0 0 0 .8-2.6 3.8 3.8 0 0 0-1.2-2.8 11 11 0 0 0-2.8-2 24.1 24.1 0 0 0-3.3-1.5l-2.6-.9-1.3-9.2q-.3-1.2-.6-2.7a23.3 23.3 0 0 0-1.1-2.8 7.4 7.4 0 0 0-1.8-2.1 4.4 4.4 0 0 0-2.7-.9 10.7 10.7 0 0 0-3.7.5 13 13 0 0 0-3.2 1.5l-1.7 1-2.5 1.5c-1 .6-2 1.1-3 1.8l-3 1.7c-1 .6-1.8 1.3-2.6 1.7s-1.3 1.1-1.7 1.1h-1l-1.7-.2a7.8 7.8 0 0 1-2.1-.4 3.1 3.1 0 0 1-1.4-.7c-.5-.4-.4-.9-.4-1.4v-1.9c0-.6-.2-.9.1-1h1.6a.5.5 0 0 1 0-.4c0-.3.1-.5.1-.8a2.9 2.9 0 0 0 .2-.9.4.4 0 0 0 0-.5 2 2 0 0 0-.8-.8l-.9-.5-.7-.7a2.3 2.3 0 0 1-.3-1.3 2.6 2.6 0 0 1 .3-1.1 3.5 3.5 0 0 1 .7-1.2c.3-.4.2-.7.6-.9l.8-.3v.7a4.7 4.7 0 0 0 .6 1.5 1.2 1.2 0 0 0 1.2.8 1.8 1.8 0 0 0 1.1-.5 4 4 0 0 0 1-1.2 10.4 10.4 0 0 0 .6-1.6c.2-.5.3.3.3-1.4H20.5a1.5 1.5 0 0 1-.8-.5 4.1 4.1 0 0 1-1.1-.7l-.9-.8a1.3 1.3 0 0 1-.4-1 4.6 4.6 0 0 1 1.1-3.2 6.8 6.8 0 0 1 2.6-1.8 11.9 11.9 0 0 1 3.2-1l2.9-.9 2.2-.9 3.4-1.6 3.4-1.6a10.7 10.7 0 0 1 2.2-1.1H52a7.1 7.1 0 0 1 3.9 1 13.5 13.5 0 0 1 3.2 2.6 29.1 29.1 0 0 1 2.6 3.3 27.5 27.5 0 0 0 2.3 3.3 11.9 11.9 0 0 0 2.3 2.6 3.3 3.3 0 0 0 2.5 1 .9.9 0 0 0 .8-.4.9.9 0 0 1 .8-.4 2.8 2.8 0 0 1 1.5.4l1.6.7 1.5.7a4.1 4.1 0 0 0 1.6.3l4.1-.2 4.2-.5 4.1-.4a29.7 29.7 0 0 1 4.2-.3c2.5 0 5 .2 7.3.4a39.9 39.9 0 0 1 7.3 1.6l5.1 2 5.2 2.2a47.2 47.2 0 0 0 5.3 1.8 19.5 19.5 0 0 0 5.4.7h2.7q6.5-1.5 12.9-2.7l13-2.4c4.3-.6 8.7-1.1 13-1.5s8.8-.6 13.3-.6h8.9a32.9 32.9 0 0 1 5.1 1l36.7 7.3h11.9c-.8 0-1.9 1-3.2 1.3a18.4 18.4 0 0 1-4.1.3z"/></symbol></svg>